<svg width="24" height="25" viewBox="0 0 24 25" fill="none" xmlns="http://www.w3.org/2000/svg">
<path d="M19.4998 22.25H19.3723C4.63478 21.4025 2.54228 8.9675 2.24978 5.1725C2.20407 4.57756 2.39654 3.98883 2.78488 3.53579C3.17321 3.08276 3.7256 2.80253 4.32053 2.75675C4.38003 2.75225 4.43978 2.75 4.49978 2.75H8.45228C8.7527 2.74971 9.04628 2.83963 9.29501 3.00812C9.54373 3.17661 9.73613 3.4159 9.84728 3.695L10.9873 6.5C11.097 6.77266 11.1243 7.07156 11.0656 7.35957C11.0069 7.64758 10.865 7.912 10.6573 8.12L9.05978 9.7325C9.3083 11.151 9.98707 12.4587 11.004 13.4784C12.021 14.498 13.3269 15.1802 14.7448 15.4325L16.3723 13.82C16.5834 13.6146 16.8503 13.4759 17.1397 13.4213C17.4292 13.3666 17.7283 13.3983 17.9998 13.5125L20.8273 14.645C21.1022 14.7597 21.3367 14.9536 21.501 15.202C21.6653 15.4504 21.7519 15.7422 21.7498 16.04V20C21.7498 20.5967 21.5127 21.169 21.0908 21.591C20.6688 22.0129 20.0965 22.25 19.4998 22.25ZM4.49978 4.25C4.40129 4.2497 4.30371 4.26881 4.2126 4.30623C4.12149 4.34365 4.03865 4.39864 3.96879 4.46808C3.89894 4.53751 3.84345 4.62003 3.80548 4.71091C3.76752 4.80179 3.74783 4.89926 3.74753 4.99775C3.74753 5.01875 3.74828 5.0395 3.74978 5.06C4.09478 9.5 6.30728 20 19.4548 20.75C19.6533 20.7619 19.8484 20.6945 19.9972 20.5625C20.146 20.4306 20.2363 20.245 20.2483 20.0465L20.2498 20V16.04L17.4223 14.9075L15.2698 17.045L14.9098 17C8.38478 16.1825 7.49978 9.6575 7.49978 9.59L7.45478 9.23L9.58478 7.0775L8.45978 4.25H4.49978Z" fill="#000000"/>
<path d="M20.25 10.25V8.75H16.8105L21.75 3.8105L20.6895 2.75L15.75 7.6895V4.25H14.25V10.25H20.25Z" fill="#000000"/>
</svg>
